# xmcd CD database file
#
# Track frame offsets:
#	150
#	21702
#	39878
#	56782
#	75387
#	91327
#	108976
#	125871
#	147938
#	167105
#	184233
#	202442
#	219117
#	234597
#	250228
#	274344
#	291848
#	307179
#
# Disc length: 4389 seconds
#
# Revision: 2
# Processed by: cddbd v1.4b41PL1 Copyright (c) Steve Scherf et al.
# Submitted via: Feurio! 1.50.2ß - http://www.feurio.com
#
DISCID=18112312
DTITLE=Various Artist - sylvia xx/2000
DYEAR=1900
DGENRE=
TTITLE0=Eminem - The Real Slim Shady
TTITLE1=Jennifer Lopez - Lets Get Loud
TTITLE2=Oceana and Kim - 48 Stunden
TTITLE3=The Rolling Stones - Anybody Seen My Baby
TTITLE4=Shania Twain - You´re still the One
TTITLE5=Sasha - If You Believe
TTITLE6=Jon Bon Jovi - It´s my Life
TTITLE7=Melanie C - Never Be The Same Again
TTITLE8=Die Toten Hosen - Bayern
TTITLE9=Reamon - Supergirl
TTITLE10=Ricky Martin - Private Emotion
TTITLE11=Natural Born Hippies - Am I Not Sweet (TV-Rip)
TTITLE12=The Corrs - Breathless
TTITLE13=Zlatko und Juergen - Grosser Bruder
TTITLE14=Red Hot Chili Peppers - Californication
TTITLE15=Oli P - Niemals Mehr
TTITLE16=Tic Tac Toe - Isch liebe Disch
TTITLE17=Echt - Junimond
EXTD=
EXTT0=
EXTT1=
EXTT2=
EXTT3=
EXTT4=
EXTT5=
EXTT6=
EXTT7=
EXTT8=
EXTT9=
EXTT10=
EXTT11=
EXTT12=
EXTT13=
EXTT14=
EXTT15=
EXTT16=
EXTT17=
PLAYORDER=
